<svg width="30" height="30" viewBox="0 0 30 30" fill="none" xmlns="http://www.w3.org/2000/svg" style="height: inherit; width: inherit;"><g clip-path="url(#clip0_3660_969)"><g opacity="0.61"><path d="M17.1741 27.6703L17.5077 28.441H17.6839L18.0164 27.6703H17.8237L17.5892 28.2208L17.3514 27.6703H17.1741Z" fill="white"></path><path d="M16.5896 28.1845H17.0377C17.0212 28.2583 16.9585 28.3034 16.8682 28.3034C16.8054 28.3034 16.7603 28.2847 16.7195 28.2461L16.6282 28.3452C16.6832 28.408 16.7658 28.441 16.8726 28.441C17.0774 28.441 17.2106 28.3122 17.2106 28.136C17.2106 27.9588 17.0752 27.8311 16.8946 27.8311C16.7207 27.8311 16.5863 27.9478 16.5863 28.1383C16.5863 28.1515 16.5884 28.1702 16.5896 28.1845ZM17.0399 28.0843H16.7481C16.7602 28.0094 16.8164 27.961 16.8934 27.961C16.9717 27.961 17.0278 28.0083 17.0399 28.0843Z" fill="white"></path><path d="M16.5159 28.136C16.5159 27.9577 16.3782 27.8311 16.1856 27.8311C16.0611 27.8311 15.9631 27.885 15.9202 27.9819L16.0534 28.0535C16.0853 27.9973 16.1326 27.972 16.1866 27.972C16.2736 27.972 16.3419 28.0325 16.3419 28.136C16.3419 28.2395 16.2736 28.3001 16.1866 28.3001C16.1327 28.3001 16.0854 28.2758 16.0534 28.2186L15.9202 28.2913C15.9631 28.3859 16.0611 28.441 16.1856 28.441C16.3782 28.441 16.5159 28.3144 16.5159 28.136Z" fill="white"></path><path d="M15.4303 28.4036C15.4655 28.4289 15.5173 28.441 15.5702 28.441C15.71 28.441 15.7914 28.3694 15.7914 28.2285V27.9852H15.8828V27.8531H15.7914V27.7088H15.6197V27.8531H15.4721V27.9852H15.6197V28.2263C15.6197 28.277 15.5922 28.3045 15.5459 28.3045C15.5206 28.3045 15.4953 28.2968 15.4766 28.2825L15.4303 28.4036Z" fill="white"></path><path d="M14.2515 27.8398V27.9984C14.2658 27.9973 14.2768 27.9962 14.29 27.9962C14.3847 27.9962 14.4475 28.0479 14.4475 28.1614V28.441H14.6193V27.8486H14.4552V27.9268C14.4134 27.8696 14.3429 27.8398 14.2515 27.8398Z" fill="white"></path><path d="M14.202 28.3518L14.1415 28.2175C14.0765 28.2648 13.9797 28.2978 13.8871 28.2978C13.7814 28.2978 13.7385 28.2626 13.7385 28.2152C13.7385 28.071 14.1867 28.1701 14.1867 27.8838C14.1867 27.7528 14.0809 27.6438 13.8619 27.6438C13.765 27.6438 13.6659 27.6669 13.5943 27.7121L13.6494 27.8475C13.721 27.8068 13.7947 27.787 13.863 27.787C13.9687 27.787 14.0094 27.8266 14.0094 27.875C14.0094 28.0171 13.5613 27.9191 13.5613 28.202C13.5613 28.3309 13.6681 28.441 13.8883 28.441C14.0104 28.441 14.1337 28.4047 14.202 28.3518Z" fill="white"></path><path d="M12.8743 28.1845H13.3224C13.3059 28.2583 13.2432 28.3034 13.1529 28.3034C13.0901 28.3034 13.045 28.2847 13.0043 28.2461L12.9129 28.3452C12.968 28.408 13.0505 28.441 13.1573 28.441C13.3621 28.441 13.4954 28.3122 13.4954 28.136C13.4954 27.9588 13.3599 27.8311 13.1793 27.8311C13.0053 27.8311 12.8711 27.9478 12.8711 28.1383C12.8709 28.1515 12.8732 28.1702 12.8743 28.1845ZM13.3246 28.0843H13.0328C13.0449 28.0094 13.1011 27.961 13.1781 27.961C13.2563 27.961 13.3125 28.0083 13.3246 28.0843Z" fill="white"></path><path d="M12.1795 28.1845H12.6277C12.6112 28.2583 12.5484 28.3034 12.4581 28.3034C12.3954 28.3034 12.3502 28.2847 12.3095 28.2461L12.2181 28.3452C12.2732 28.408 12.3558 28.441 12.4626 28.441C12.6673 28.441 12.8006 28.3122 12.8006 28.136C12.8006 27.9588 12.6652 27.8311 12.4846 27.8311C12.3106 27.8311 12.1763 27.9478 12.1763 28.1383C12.1762 28.1515 12.1785 28.1702 12.1795 28.1845ZM12.6299 28.0843H12.3381C12.3502 28.0094 12.4064 27.961 12.4834 27.961C12.5616 27.961 12.6178 28.0083 12.6299 28.0843Z" fill="white"></path><path d="M11.8075 28.2087L11.8901 28.2902V28.441H12.0618V27.6241H11.8901V28.0865L11.639 27.8486H11.4342L11.6809 28.0997L11.4122 28.441H11.6203L11.8075 28.2087Z" fill="white"></path><path d="M14.6039 28.5215L14.7755 28.3499C14.8016 28.3804 14.8327 28.4065 14.8675 28.427C14.8731 28.4311 14.8787 28.4351 14.8845 28.4389L14.7029 28.6205C14.6755 28.6479 14.6312 28.6479 14.6039 28.6205C14.5765 28.5932 14.5765 28.5489 14.6039 28.5215Z" fill="white"></path><path d="M15.001 27.7946C14.9877 27.7843 14.9713 27.7778 14.9531 27.7778C14.9506 27.7778 14.9482 27.7779 14.9457 27.7781C14.9585 27.7688 14.9744 27.7632 14.9915 27.7632C15.0152 27.7632 15.0362 27.774 15.0504 27.7907C15.0535 27.7907 15.0564 27.791 15.0595 27.7912C15.0571 27.7865 15.0556 27.7814 15.0556 27.7759C15.0556 27.7618 15.0642 27.7498 15.0764 27.7447C15.0712 27.7523 15.0681 27.7615 15.0681 27.7714C15.0681 27.7787 15.07 27.7856 15.073 27.7919C15.2416 27.8039 15.3748 27.9442 15.3748 28.1159C15.3748 28.2955 15.2292 28.4411 15.0496 28.4411C14.87 28.4411 14.7244 28.2955 14.7244 28.1159C14.7243 27.9527 14.8444 27.8181 15.001 27.7946ZM15.121 27.8794C15.0949 27.8794 15.0704 27.8861 15.0491 27.8979C15.0266 27.8832 14.9999 27.8747 14.9711 27.8747C14.9285 27.8747 14.8903 27.8934 14.8641 27.923C14.8902 27.9003 14.9243 27.8864 14.9617 27.8864C14.9887 27.8864 15.0139 27.8936 15.0358 27.9062C15.0405 27.9089 15.0451 27.9119 15.0495 27.9152C15.0534 27.9123 15.0575 27.9096 15.0617 27.9071C15.0839 27.894 15.1097 27.8865 15.1373 27.8865C15.1553 27.8865 15.1726 27.8897 15.1886 27.8956C15.1682 27.8852 15.1453 27.8794 15.121 27.8794ZM14.8937 28.1459C14.8868 28.1642 14.8828 28.1839 14.8828 28.2046C14.8828 28.2967 14.9575 28.3712 15.0495 28.3712C15.1415 28.3712 15.2161 28.2967 15.2161 28.2046C15.2161 28.1839 15.2122 28.1642 15.2053 28.1459C15.2425 28.123 15.2674 28.082 15.2674 28.0351C15.2674 27.9633 15.2091 27.905 15.1373 27.905C15.1034 27.905 15.0726 27.9181 15.0495 27.9394C15.0263 27.9181 14.9956 27.905 14.9617 27.905C14.8898 27.905 14.8316 27.9633 14.8316 28.0351C14.8316 28.082 14.8565 28.123 14.8937 28.1459Z" fill="white"></path><path d="M14.9 28.0237C14.9 28.0535 14.9242 28.0777 14.9541 28.0777C14.9839 28.0777 15.0081 28.0535 15.0081 28.0237C15.0081 27.9938 14.9839 27.9696 14.9541 27.9696C14.948 27.9696 14.9422 27.9706 14.9368 27.9724C14.9386 27.9761 14.9395 27.9803 14.9395 27.9847C14.9395 28.001 14.9263 28.0143 14.9099 28.0143C14.9069 28.0143 14.904 28.0138 14.9011 28.013C14.9004 28.0165 14.9 28.02 14.9 28.0237Z" fill="white"></path><path d="M15.1047 28.0236C15.1047 28.0462 15.123 28.0645 15.1455 28.0645C15.1681 28.0645 15.1864 28.0462 15.1864 28.0236C15.1864 28.0011 15.1681 27.9828 15.1455 27.9828C15.141 27.9828 15.1366 27.9836 15.1325 27.9849C15.1339 27.9877 15.1346 27.9909 15.1346 27.9942C15.1346 28.0065 15.1245 28.0166 15.1121 28.0166C15.1098 28.0166 15.1076 28.0163 15.1055 28.0156C15.105 28.0182 15.1047 28.0209 15.1047 28.0236Z" fill="white"></path><path d="M15.3885 28.0698H15.4255V28.1068H15.3885V28.0698Z" fill="white"></path><path d="M14.6734 28.0698H14.7103V28.1068H14.6734V28.0698Z" fill="white"></path><path d="M14.6877 28.0849H14.6961C14.6961 27.89 14.8546 27.7315 15.0495 27.7315C15.2443 27.7315 15.4029 27.89 15.4029 28.0849H15.4113C15.4113 27.9883 15.3736 27.8974 15.3053 27.8291C15.237 27.7607 15.1461 27.7231 15.0495 27.7231C14.9528 27.7231 14.862 27.7607 14.7936 27.8291C14.7253 27.8974 14.6877 27.9883 14.6877 28.0849Z" fill="white"></path><path d="M15.0309 27.7088H15.0679V27.7458H15.0309V27.7088Z" fill="white"></path><path d="M14.796 27.7231H15.303V27.7315H14.796V27.7231Z" fill="white"></path><path d="M15.2895 27.729C15.2895 27.7355 15.2948 27.7407 15.3013 27.7407C15.3078 27.7407 15.313 27.7355 15.313 27.729C15.313 27.7225 15.3078 27.7172 15.3013 27.7172C15.2948 27.7172 15.2895 27.7225 15.2895 27.729Z" fill="white"></path><path d="M14.7842 27.729C14.7842 27.7355 14.7895 27.7407 14.796 27.7407C14.8025 27.7407 14.8077 27.7355 14.8077 27.729C14.8077 27.7225 14.8025 27.7172 14.796 27.7172C14.7894 27.7172 14.7842 27.7225 14.7842 27.729Z" fill="white"></path><path d="M11.1386 28.4045C11.1386 28.4981 11.2805 28.4981 11.2805 28.4045C11.2804 28.311 11.1386 28.311 11.1386 28.4045Z" fill="white"></path><path d="M20.2956 27.993L20.1893 28.3582L20.078 27.993H19.9451L20.1145 28.4813H20.2543L20.3045 28.3376L20.3478 28.1751L20.3912 28.3376L20.4414 28.4813H20.5812L20.7515 27.993H20.6177L20.5064 28.3582L20.401 27.993H20.2956Z" fill="white"></path><path d="M19.3972 27.993L19.2909 28.3582L19.1796 27.993H19.0467L19.2161 28.4813H19.3559L19.4061 28.3376L19.4494 28.1751L19.4927 28.3376L19.5429 28.4813H19.6827L19.8531 27.993H19.7192L19.6079 28.3582L19.5026 27.993H19.3972Z" fill="white"></path><path d="M18.4988 27.993L18.3925 28.3582L18.2812 27.993H18.1483L18.3176 28.4813H18.4574L18.5077 28.3376L18.551 28.1751L18.5943 28.3376L18.6445 28.4813H18.7843L18.9547 27.993H18.8208L18.7095 28.3582L18.6041 27.993H18.4988Z" fill="white"></path><path d="M17.9455 28.4112C17.9455 28.5047 18.0873 28.5047 18.0873 28.4112C18.0873 28.3177 17.9455 28.3177 17.9455 28.4112Z" fill="white"></path><path d="M10.6374 28.4045C10.6935 28.4597 10.7525 28.4813 10.8244 28.4813C10.9652 28.4813 11.0824 28.3967 11.0824 28.2244C11.0824 28.0522 10.9652 27.9674 10.8244 27.9674C10.7555 27.9674 10.7023 27.9871 10.6491 28.0393L10.725 28.1191C10.7535 28.0934 10.7889 28.0807 10.8224 28.0807C10.9031 28.0807 10.9622 28.1398 10.9622 28.2244C10.9622 28.3169 10.8992 28.3661 10.8243 28.3661C10.7859 28.3661 10.7475 28.3553 10.718 28.3258L10.6374 28.4045Z" fill="white"></path><path d="M10.0917 28.2283C10.0917 28.3681 10.1871 28.4814 10.3447 28.4814C10.5022 28.4814 10.5967 28.3681 10.5967 28.2283C10.5967 28.0895 10.5002 27.9753 10.3456 27.9753C10.191 27.9753 10.0917 28.0895 10.0917 28.2283ZM10.4766 28.2283C10.4766 28.3022 10.4323 28.3711 10.3447 28.3711C10.2571 28.3711 10.2127 28.3022 10.2127 28.2283C10.2127 28.1554 10.264 28.0846 10.3447 28.0846C10.4313 28.0846 10.4766 28.1555 10.4766 28.2283Z" fill="white"></path><path d="M9.68569 28.4813V28.2214C9.68569 28.1573 9.71923 28.0993 9.78517 28.0993C9.85009 28.0993 9.88849 28.1573 9.88849 28.2214V28.4813H10.0087V27.9949H9.89737L9.88849 28.054C9.86293 28.0048 9.80677 27.9871 9.76051 27.9871C9.70237 27.9871 9.64429 28.0107 9.61675 28.0777C9.57337 28.0087 9.51727 27.989 9.45427 27.989C9.31645 27.989 9.24847 28.0737 9.24847 28.2194V28.4813H9.36865V28.2194C9.36865 28.1554 9.39517 28.1012 9.46021 28.1012C9.52513 28.1012 9.56557 28.1573 9.56557 28.2214V28.4813H9.68569V28.4813Z" fill="white"></path></g><g opacity="0.61"><path d="M9.24074 25.8779C9.2411 25.8045 9.29828 25.7507 9.37208 25.7495C9.42752 25.7487 9.422 25.7567 9.42212 25.6975C9.4223 25.6317 9.42254 25.5659 9.42194 25.5C9.42176 25.4773 9.42866 25.4585 9.44366 25.4414C9.58418 25.2814 9.72434 25.1209 9.8648 24.9608C9.872 24.9526 9.8813 24.9461 9.88964 24.9388C10.2625 24.9388 10.6353 24.9388 11.0081 24.9388C11.0557 24.9564 11.0765 24.9909 11.0764 25.0414C11.0758 25.2662 11.0761 25.4911 11.0761 25.7159C11.0761 25.7493 11.0763 25.7513 11.1091 25.749C11.199 25.7429 11.2601 25.8082 11.259 25.8985C11.2563 26.1071 11.2582 26.3157 11.2581 26.5243C11.2581 26.6191 11.2061 26.6708 11.1111 26.6712C11.0762 26.6713 11.0762 26.6713 11.0762 26.7072C11.0762 26.8403 11.0763 26.9735 11.0761 27.1066C11.0761 27.1781 11.0413 27.2129 10.9701 27.2129C10.4893 27.2129 10.0084 27.2129 9.52766 27.2129C9.45758 27.2129 9.42236 27.1779 9.42224 27.1082C9.42212 26.9728 9.42224 26.8375 9.42218 26.7021C9.42218 26.6714 9.42206 26.6714 9.39098 26.6712C9.37472 26.6711 9.35852 26.6717 9.34244 26.6677C9.28268 26.653 9.24104 26.6051 9.2408 26.5436C9.23984 26.3218 9.23972 26.0998 9.24074 25.8779ZM10.9478 25.0297C10.6276 25.0297 10.3074 25.0297 9.9872 25.0297C9.95432 25.0297 9.95396 25.0301 9.95396 25.0634C9.9539 25.198 9.95402 25.3325 9.9539 25.4672C9.95384 25.5158 9.93896 25.5307 9.8903 25.5307C9.7757 25.5308 9.66104 25.5307 9.54644 25.5308C9.51896 25.5308 9.5177 25.532 9.51758 25.5598C9.5174 25.613 9.51746 25.6663 9.51758 25.7195C9.51764 25.7481 9.51902 25.7494 9.54782 25.7494C9.78152 25.7495 10.0152 25.7494 10.2489 25.7494C10.4818 25.7494 10.7148 25.7494 10.9477 25.7494C10.9807 25.7494 10.9808 25.7494 10.9808 25.7158C10.9809 25.4983 10.9809 25.2809 10.9808 25.0635C10.9808 25.03 10.9806 25.0297 10.9478 25.0297ZM9.5507 27.0947C9.78368 27.0948 10.0167 27.0947 10.2497 27.0947C10.482 27.0947 10.7142 27.0947 10.9465 27.0947C10.9808 27.0947 10.9809 27.0946 10.9809 27.06C10.981 26.9402 10.981 26.8204 10.9809 26.7005C10.9809 26.6727 10.9795 26.6714 10.9522 26.6713C10.484 26.6713 10.0158 26.6713 9.54758 26.6713C9.5189 26.6713 9.51764 26.6725 9.51764 26.7015C9.51752 26.8213 9.51758 26.9411 9.51764 27.061C9.51752 27.0944 9.51782 27.0947 9.5507 27.0947Z" fill="white"></path><path d="M10.2496 25.0232H10.355V25.0864H10.2496V25.0232Z" fill="white"></path><path d="M10.3549 25.0864H10.4603V25.1496H10.3549V25.0864Z" fill="white"></path><path d="M10.2496 25.1497H10.355V25.2129H10.2496V25.1497Z" fill="white"></path><path d="M10.3549 25.2129H10.4603V25.2761H10.3549V25.2129Z" fill="white"></path><path d="M10.2496 25.2761H10.355V25.3394H10.2496V25.2761Z" fill="white"></path><path d="M10.3549 25.3394H10.4603V25.4026H10.3549V25.3394Z" fill="white"></path><path d="M10.2496 25.4026H10.355V25.4659H10.2496V25.4026Z" fill="white"></path><path d="M10.3549 25.4659H10.4603V25.5292H10.3549V25.4659Z" fill="white"></path><path d="M10.2496 25.5291H10.355V25.5924H10.2496V25.5291Z" fill="white"></path><path d="M10.3549 25.5924H10.4603V25.6556H10.3549V25.5924Z" fill="white"></path><path d="M10.2496 25.6556H10.355V25.7189H10.2496V25.6556Z" fill="white"></path><path d="M10.3549 25.7189H10.4603V25.7821H10.3549V25.7189Z" fill="white"></path><path d="M18.7418 25.8779C18.7421 25.8045 18.7993 25.7507 18.8731 25.7495C18.9286 25.7487 18.923 25.7567 18.9232 25.6975C18.9233 25.6317 18.9236 25.5659 18.923 25.5C18.9228 25.4773 18.9297 25.4585 18.9447 25.4414C19.0852 25.2814 19.2254 25.1209 19.3658 24.9608C19.373 24.9526 19.3823 24.9461 19.3907 24.9388C19.7635 24.9388 20.1363 24.9388 20.5091 24.9388C20.5568 24.9564 20.5775 24.9909 20.5774 25.0414C20.5768 25.2662 20.5772 25.4911 20.5772 25.7159C20.5772 25.7493 20.5774 25.7513 20.6102 25.749C20.7 25.7429 20.7611 25.8082 20.76 25.8985C20.7574 26.1071 20.7592 26.3157 20.7592 26.5243C20.7591 26.6191 20.7071 26.6708 20.6122 26.6712C20.5772 26.6713 20.5772 26.6713 20.5772 26.7072C20.5772 26.8403 20.5773 26.9735 20.5772 27.1066C20.5771 27.1781 20.5424 27.2129 20.4711 27.2129C19.9903 27.2129 19.5095 27.2129 19.0287 27.2129C18.9586 27.2129 18.9234 27.1779 18.9233 27.1082C18.9232 26.9728 18.9233 26.8375 18.9232 26.7021C18.9232 26.6714 18.9231 26.6714 18.892 26.6712C18.8758 26.6711 18.8596 26.6717 18.8435 26.6677C18.7837 26.653 18.7421 26.6051 18.7418 26.5436C18.7409 26.3218 18.7407 26.0998 18.7418 25.8779ZM20.4488 25.0297C20.1286 25.0297 19.8083 25.0297 19.4882 25.0297C19.4553 25.0297 19.4549 25.0301 19.4549 25.0634C19.4549 25.198 19.455 25.3325 19.4549 25.4672C19.4548 25.5158 19.4399 25.5307 19.3913 25.5307C19.2767 25.5308 19.162 25.5307 19.0474 25.5308C19.0199 25.5308 19.0187 25.532 19.0186 25.5598C19.0184 25.613 19.0184 25.6663 19.0186 25.7195C19.0186 25.7481 19.02 25.7494 19.0488 25.7494C19.2825 25.7495 19.5162 25.7494 19.7498 25.7494C19.9828 25.7494 20.2157 25.7494 20.4487 25.7494C20.4817 25.7494 20.4818 25.7494 20.4818 25.7158C20.4818 25.4983 20.4818 25.2809 20.4818 25.0635C20.4818 25.03 20.4816 25.0297 20.4488 25.0297ZM19.0517 27.0947C19.2847 27.0948 19.5176 27.0947 19.7507 27.0947C19.9829 27.0947 20.2152 27.0947 20.4475 27.0947C20.4818 27.0947 20.4819 27.0946 20.4819 27.06C20.482 26.9402 20.482 26.8204 20.4818 26.7005C20.4818 26.6727 20.4805 26.6714 20.4532 26.6713C19.985 26.6713 19.5167 26.6713 19.0486 26.6713C19.0199 26.6713 19.0186 26.6725 19.0186 26.7015C19.0185 26.8213 19.0186 26.9411 19.0186 27.061C19.0186 27.0944 19.0189 27.0947 19.0517 27.0947Z" fill="white"></path><path d="M20.4133 26.4401V25.9663H20.2465C20.224 25.9663 20.203 25.97 20.1833 25.9772C20.1637 25.9845 20.1466 25.9947 20.132 26.008C20.1175 26.0213 20.106 26.037 20.0977 26.0553C20.0893 26.0736 20.0851 26.0939 20.0851 26.1159C20.0851 26.1384 20.0893 26.1588 20.0977 26.1771C20.1061 26.1954 20.1175 26.2112 20.132 26.2244C20.1466 26.2377 20.1637 26.2479 20.1833 26.2552C20.203 26.2625 20.224 26.2661 20.2465 26.2661H20.3239V26.4402H20.4133V26.4401ZM20.2452 26.1813C20.2218 26.1813 20.2042 26.1747 20.1923 26.1615C20.1803 26.1483 20.1744 26.133 20.1744 26.1158C20.1744 26.1074 20.1758 26.0993 20.1787 26.0913C20.1816 26.0834 20.186 26.0765 20.192 26.0705C20.1979 26.0646 20.2054 26.0598 20.2142 26.0563C20.223 26.0528 20.2334 26.051 20.2453 26.051H20.324V26.1813H20.2452Z" fill="white"></path><path d="M20.0215 25.9662H19.9177L19.7271 26.2839H19.7218L19.7271 26.1926V25.9662H19.6384V26.4401H19.7323L19.9335 26.1045H19.9388L19.9335 26.1959V26.4401H20.0215V25.9662Z" fill="white"></path><path d="M19.3247 26.18H19.0924C19.0911 26.1854 19.09 26.1917 19.0891 26.1992C19.0883 26.2067 19.0878 26.2142 19.0878 26.2217C19.0878 26.2521 19.0924 26.2808 19.1016 26.3078C19.1109 26.3347 19.1255 26.3587 19.1453 26.3799C19.1665 26.4024 19.1919 26.4198 19.2214 26.4321C19.251 26.4445 19.2847 26.4507 19.3227 26.4507C19.3571 26.4507 19.3895 26.4445 19.42 26.4321C19.4504 26.4198 19.4769 26.4026 19.4994 26.3805C19.5219 26.3585 19.5398 26.3324 19.553 26.3021C19.5663 26.2719 19.5729 26.2389 19.5729 26.2032C19.5729 26.1675 19.5663 26.1345 19.553 26.1042C19.5398 26.074 19.5219 26.0479 19.4994 26.0258C19.4769 26.0038 19.4504 25.9866 19.42 25.9742C19.3896 25.9619 19.3571 25.9557 19.3227 25.9557C19.2843 25.9557 19.25 25.9623 19.2198 25.9755C19.1895 25.9888 19.1637 26.0071 19.142 26.0304L19.2035 26.0907C19.219 26.0744 19.2362 26.0619 19.2552 26.0533C19.2741 26.0447 19.2969 26.0404 19.3233 26.0404C19.345 26.0404 19.3655 26.0443 19.3849 26.052C19.4043 26.0597 19.4213 26.0706 19.4359 26.0847C19.4504 26.0988 19.4621 26.1159 19.4706 26.136C19.4792 26.1561 19.4835 26.1785 19.4835 26.2032C19.4835 26.2279 19.4792 26.2503 19.4706 26.2704C19.4621 26.2905 19.4504 26.3076 19.4356 26.3217C19.4208 26.3358 19.4037 26.3468 19.3843 26.3544C19.3649 26.3622 19.3442 26.366 19.3221 26.366C19.2969 26.366 19.2757 26.3624 19.2582 26.3551C19.2408 26.3478 19.226 26.3384 19.2136 26.327C19.2047 26.319 19.1971 26.309 19.1907 26.2968C19.1844 26.2847 19.1794 26.2712 19.1759 26.2562H19.3248L19.3247 26.18Z" fill="white"></path><path d="M16.5589 25.8779C16.5592 25.8045 16.6164 25.7507 16.6902 25.7495C16.7456 25.7487 16.7401 25.7567 16.7402 25.6975C16.7404 25.6317 16.7407 25.5659 16.7401 25.5C16.7399 25.4773 16.7468 25.4585 16.7618 25.4414C16.9023 25.2814 17.0425 25.1209 17.1829 24.9608C17.1901 24.9526 17.1994 24.9461 17.2078 24.9388C17.5806 24.9388 17.9534 24.9388 18.3262 24.9388C18.3739 24.9564 18.3946 24.9909 18.3945 25.0414C18.3939 25.2662 18.3943 25.4911 18.3943 25.7159C18.3943 25.7493 18.3944 25.7513 18.4273 25.749C18.5171 25.7429 18.5782 25.8082 18.5771 25.8985C18.5744 26.1071 18.5763 26.3157 18.5762 26.5243C18.5762 26.6191 18.5242 26.6708 18.4292 26.6712C18.3943 26.6713 18.3943 26.6713 18.3943 26.7072C18.3943 26.8403 18.3944 26.9735 18.3943 27.1066C18.3942 27.1781 18.3595 27.2129 18.2882 27.2129C17.8074 27.2129 17.3266 27.2129 16.8458 27.2129C16.7757 27.2129 16.7405 27.1779 16.7404 27.1082C16.7402 26.9728 16.7404 26.8375 16.7403 26.7021C16.7403 26.6714 16.7402 26.6714 16.7091 26.6712C16.6928 26.6711 16.6766 26.6717 16.6606 26.6677C16.6007 26.653 16.5592 26.6051 16.5589 26.5436C16.558 26.3218 16.5578 26.0998 16.5589 25.8779ZM18.2659 25.0297C17.9457 25.0297 17.6255 25.0297 17.3053 25.0297C17.2724 25.0297 17.2721 25.0301 17.2721 25.0634C17.272 25.198 17.2721 25.3325 17.272 25.4672C17.272 25.5158 17.2571 25.5307 17.2084 25.5307C17.0938 25.5308 16.9792 25.5307 16.8646 25.5308C16.8371 25.5308 16.8358 25.532 16.8357 25.5598C16.8355 25.613 16.8356 25.6663 16.8357 25.7195C16.8358 25.7481 16.8371 25.7494 16.8659 25.7494C17.0996 25.7495 17.3333 25.7494 17.567 25.7494C17.7999 25.7494 18.0329 25.7494 18.2658 25.7494C18.2988 25.7494 18.2989 25.7494 18.2989 25.7158C18.299 25.4983 18.299 25.2809 18.2989 25.0635C18.2989 25.03 18.2987 25.0297 18.2659 25.0297ZM16.8688 27.0947C17.1017 27.0948 17.3347 27.0947 17.5678 27.0947C17.8 27.0947 18.0323 27.0947 18.2645 27.0947C18.2989 27.0947 18.299 27.0946 18.299 27.06C18.299 26.9402 18.299 26.8204 18.2989 26.7005C18.2989 26.6727 18.2975 26.6714 18.2702 26.6713C17.8021 26.6713 17.3338 26.6713 16.8656 26.6713C16.837 26.6713 16.8357 26.6725 16.8357 26.7015C16.8356 26.8213 16.8356 26.9411 16.8357 27.061C16.8356 27.0944 16.8359 27.0947 16.8688 27.0947Z" fill="white"></path><path d="M17.6933 25.9662H17.5914L17.4134 26.4401H17.512L17.5511 26.3269H17.7337L17.7728 26.4401H17.8713L17.6933 25.9662ZM17.5802 26.2449L17.6225 26.1264L17.6397 26.0688H17.645L17.6622 26.1264L17.7046 26.2449H17.5802Z" fill="white"></path><path d="M17.3201 26.0721C17.3276 26.0721 17.3348 26.0707 17.3417 26.0678C17.3485 26.0649 17.3544 26.061 17.3595 26.0559C17.3646 26.0508 17.3686 26.045 17.3714 26.0384C17.3743 26.0318 17.3757 26.0244 17.3757 26.0165C17.3757 26.0086 17.3743 26.0013 17.3714 25.9947C17.3685 25.9881 17.3646 25.9822 17.3595 25.9772C17.3545 25.9721 17.3485 25.9681 17.3417 25.9653C17.3348 25.9624 17.3277 25.961 17.3201 25.961C17.3047 25.961 17.2914 25.9664 17.2804 25.9772C17.2694 25.988 17.2638 26.0011 17.2638 26.0165C17.2638 26.0319 17.2694 26.0451 17.2804 26.0559C17.2914 26.0667 17.3046 26.0721 17.3201 26.0721ZM17.3631 26.4401V26.1159H17.2764V26.4401H17.3631Z" fill="white"></path><path d="M14.3374 25.8779C14.3377 25.8045 14.3949 25.7507 14.4687 25.7495C14.5241 25.7487 14.5186 25.7567 14.5187 25.6975C14.5189 25.6317 14.5192 25.5659 14.5186 25.5C14.5184 25.4773 14.5253 25.4585 14.5403 25.4414C14.6808 25.2814 14.821 25.1209 14.9614 24.9608C14.9686 24.9526 14.9779 24.9461 14.9863 24.9388C15.3591 24.9388 15.7319 24.9388 16.1047 24.9388C16.1524 24.9564 16.1731 24.9909 16.173 25.0414C16.1724 25.2662 16.1728 25.4911 16.1728 25.7159C16.1728 25.7493 16.1729 25.7513 16.2058 25.749C16.2956 25.7429 16.3567 25.8082 16.3556 25.8985C16.3529 26.1071 16.3548 26.3157 16.3547 26.5243C16.3547 26.6191 16.3027 26.6708 16.2077 26.6712C16.1728 26.6713 16.1728 26.6713 16.1728 26.7072C16.1728 26.8403 16.1729 26.9735 16.1728 27.1066C16.1727 27.1781 16.138 27.2129 16.0667 27.2129C15.5859 27.2129 15.1051 27.2129 14.6243 27.2129C14.5542 27.2129 14.519 27.1779 14.5189 27.1082C14.5187 26.9728 14.5189 26.8375 14.5188 26.7021C14.5188 26.6714 14.5187 26.6714 14.4876 26.6712C14.4713 26.6711 14.4551 26.6717 14.4391 26.6677C14.3793 26.653 14.3377 26.6051 14.3374 26.5436C14.3365 26.3218 14.3363 26.0998 14.3374 25.8779ZM16.0444 25.0297C15.7242 25.0297 15.404 25.0297 15.0838 25.0297C15.0509 25.0297 15.0506 25.0301 15.0506 25.0634C15.0505 25.198 15.0506 25.3325 15.0505 25.4672C15.0505 25.5158 15.0356 25.5307 14.9869 25.5307C14.8723 25.5308 14.7577 25.5307 14.6431 25.5308C14.6156 25.5308 14.6143 25.532 14.6142 25.5598C14.614 25.613 14.6141 25.6663 14.6142 25.7195C14.6143 25.7481 14.6156 25.7494 14.6444 25.7494C14.8781 25.7495 15.1118 25.7494 15.3455 25.7494C15.5784 25.7494 15.8114 25.7494 16.0443 25.7494C16.0773 25.7494 16.0774 25.7494 16.0774 25.7158C16.0775 25.4983 16.0775 25.2809 16.0774 25.0635C16.0775 25.03 16.0772 25.0297 16.0444 25.0297ZM14.6473 27.0947C14.8803 27.0948 15.1133 27.0947 15.3463 27.0947C15.5786 27.0947 15.8108 27.0947 16.0431 27.0947C16.0774 27.0947 16.0775 27.0946 16.0775 27.06C16.0776 26.9402 16.0776 26.8204 16.0775 26.7005C16.0775 26.6727 16.0761 26.6714 16.0488 26.6713C15.5806 26.6713 15.1124 26.6713 14.6442 26.6713C14.6155 26.6713 14.6143 26.6725 14.6143 26.7015C14.6141 26.8213 14.6142 26.9411 14.6143 27.061C14.6141 27.0944 14.6144 27.0947 14.6473 27.0947Z" fill="white"></path><path d="M15.8184 26.4508C15.8386 26.4508 15.8581 26.4479 15.8766 26.4422C15.8952 26.4365 15.9121 26.4279 15.9276 26.4164C15.943 26.405 15.9564 26.3909 15.9679 26.3744C15.9794 26.3579 15.9885 26.3386 15.9951 26.3165L15.911 26.2835C15.9048 26.3073 15.894 26.327 15.8786 26.3427C15.8632 26.3584 15.8428 26.3662 15.8177 26.3662C15.8085 26.3662 15.7995 26.365 15.7909 26.3626C15.7823 26.3602 15.7746 26.3566 15.7677 26.352C15.7609 26.3474 15.7555 26.3415 15.7515 26.3345C15.7476 26.3274 15.7456 26.3192 15.7456 26.31C15.7456 26.3012 15.7471 26.2933 15.7502 26.2862C15.7533 26.2792 15.7585 26.2726 15.7657 26.2663C15.773 26.2601 15.7825 26.2542 15.7942 26.2484C15.8059 26.2427 15.8203 26.2367 15.8376 26.2306L15.8667 26.22C15.8794 26.2156 15.8924 26.2096 15.9054 26.2021C15.9184 26.1946 15.9301 26.1856 15.9408 26.175C15.9514 26.1644 15.9601 26.152 15.9669 26.1376C15.9738 26.1233 15.9772 26.1071 15.9772 26.089C15.9772 26.0705 15.9736 26.0532 15.9663 26.0371C15.959 26.021 15.9486 26.0069 15.9352 25.9947C15.9217 25.9826 15.9057 25.9731 15.8869 25.9663C15.8681 25.9594 15.8473 25.956 15.8244 25.956C15.8005 25.956 15.78 25.9592 15.7625 25.9656C15.745 25.972 15.7303 25.9802 15.7182 25.9901C15.706 26 15.6962 26.011 15.6887 26.0228C15.6812 26.0348 15.6757 26.046 15.6721 26.0566L15.7509 26.0897C15.7553 26.0764 15.7633 26.0645 15.775 26.0539C15.7867 26.0434 15.8027 26.038 15.823 26.038C15.8424 26.038 15.8585 26.0425 15.8713 26.0516C15.8841 26.0606 15.8905 26.0725 15.8905 26.087C15.8905 26.1011 15.8843 26.1131 15.8719 26.123C15.8596 26.1329 15.84 26.1425 15.813 26.1518L15.7832 26.1617C15.7642 26.1684 15.7469 26.176 15.7312 26.1846C15.7156 26.1932 15.7021 26.2034 15.6909 26.2154C15.6796 26.2273 15.671 26.2409 15.6651 26.2561C15.6591 26.2713 15.6561 26.2888 15.6561 26.3087C15.6561 26.3334 15.6611 26.3547 15.671 26.3725C15.6809 26.3904 15.6936 26.405 15.709 26.4166C15.7245 26.428 15.7419 26.4367 15.7614 26.4424C15.7809 26.4479 15.7998 26.4508 15.8184 26.4508Z" fill="white"></path><path d="M15.629 25.9662H15.5324L15.4344 26.2515L15.4172 26.3124H15.4119L15.3934 26.2515L15.2915 25.9662H15.1949L15.3676 26.4401H15.4616L15.629 25.9662Z" fill="white"></path><path d="M14.9342 26.18H14.702C14.7006 26.1854 14.6996 26.1917 14.6987 26.1992C14.6978 26.2067 14.6973 26.2142 14.6973 26.2217C14.6973 26.2521 14.702 26.2808 14.7112 26.3078C14.7204 26.3347 14.735 26.3587 14.7549 26.3799C14.7761 26.4024 14.8014 26.4198 14.831 26.4321C14.8605 26.4445 14.8943 26.4507 14.9322 26.4507C14.9667 26.4507 14.9991 26.4445 15.0295 26.4321C15.0599 26.4198 15.0864 26.4026 15.1089 26.3805C15.1314 26.3585 15.1493 26.3324 15.1626 26.3021C15.1758 26.2719 15.1824 26.2389 15.1824 26.2032C15.1824 26.1675 15.1758 26.1345 15.1626 26.1042C15.1493 26.074 15.1315 26.0479 15.1089 26.0258C15.0864 26.0038 15.06 25.9866 15.0295 25.9742C14.9991 25.9619 14.9667 25.9557 14.9322 25.9557C14.8938 25.9557 14.8596 25.9623 14.8293 25.9755C14.7991 25.9888 14.7732 26.0071 14.7516 26.0304L14.8131 26.0907C14.8286 26.0744 14.8458 26.0619 14.8648 26.0533C14.8838 26.0447 14.9064 26.0404 14.933 26.0404C14.9546 26.0404 14.9751 26.0443 14.9945 26.052C15.0139 26.0597 15.0309 26.0706 15.0455 26.0847C15.06 26.0988 15.0716 26.1159 15.0802 26.136C15.0888 26.1561 15.0931 26.1785 15.0931 26.2032C15.0931 26.2279 15.0888 26.2503 15.0802 26.2704C15.0716 26.2905 15.0599 26.3076 15.0451 26.3217C15.0303 26.3358 15.0132 26.3468 14.9939 26.3544C14.9744 26.3622 14.9537 26.366 14.9316 26.366C14.9065 26.366 14.8852 26.3624 14.8678 26.3551C14.8504 26.3478 14.8355 26.3384 14.8231 26.327C14.8143 26.319 14.8067 26.309 14.8003 26.2968C14.7939 26.2847 14.789 26.2712 14.7854 26.2562H14.9343V26.18H14.9342Z" fill="white"></path><path d="M12.162 25.8779C12.1624 25.8045 12.2195 25.7507 12.2933 25.7495C12.3488 25.7487 12.3433 25.7567 12.3434 25.6975C12.3436 25.6317 12.3438 25.5659 12.3432 25.5C12.343 25.4773 12.3499 25.4585 12.3649 25.4414C12.5054 25.2814 12.6456 25.1209 12.7861 24.9608C12.7933 24.9526 12.8026 24.9461 12.8109 24.9388C13.1837 24.9388 13.5565 24.9388 13.9294 24.9388C13.977 24.9564 13.9978 24.9909 13.9976 25.0414C13.997 25.2662 13.9974 25.4911 13.9974 25.7159C13.9974 25.7493 13.9976 25.7513 14.0304 25.749C14.1202 25.7429 14.1814 25.8082 14.1802 25.8985C14.1776 26.1071 14.1794 26.3157 14.1794 26.5243C14.1793 26.6191 14.1274 26.6708 14.0324 26.6712C13.9975 26.6713 13.9975 26.6713 13.9975 26.7072C13.9975 26.8403 13.9975 26.9735 13.9974 27.1066C13.9973 27.1781 13.9626 27.2129 13.8913 27.2129C13.4105 27.2129 12.9297 27.2129 12.4489 27.2129C12.3788 27.2129 12.3436 27.1779 12.3435 27.1082C12.3434 26.9728 12.3435 26.8375 12.3434 26.7021C12.3434 26.6714 12.3433 26.6714 12.3122 26.6712C12.296 26.6711 12.2798 26.6717 12.2637 26.6677C12.2039 26.653 12.1623 26.6051 12.1621 26.5436C12.1611 26.3218 12.1609 26.0998 12.162 25.8779ZM13.869 25.0297C13.5488 25.0297 13.2286 25.0297 12.9084 25.0297C12.8755 25.0297 12.8752 25.0301 12.8752 25.0634C12.8751 25.198 12.8752 25.3325 12.8751 25.4672C12.875 25.5158 12.8602 25.5307 12.8115 25.5307C12.6969 25.5308 12.5822 25.5307 12.4676 25.5308C12.4402 25.5308 12.4389 25.532 12.4388 25.5598C12.4386 25.613 12.4387 25.6663 12.4388 25.7195C12.4388 25.7481 12.4402 25.7494 12.469 25.7494C12.7027 25.7495 12.9364 25.7494 13.1701 25.7494C13.403 25.7494 13.636 25.7494 13.8689 25.7494C13.9019 25.7494 13.902 25.7494 13.902 25.7158C13.9021 25.4983 13.9021 25.2809 13.902 25.0635C13.9021 25.03 13.9018 25.0297 13.869 25.0297ZM12.4719 27.0947C12.7049 27.0948 12.9379 27.0947 13.1709 27.0947C13.4032 27.0947 13.6354 27.0947 13.8677 27.0947C13.902 27.0947 13.9021 27.0946 13.9021 27.06C13.9022 26.9402 13.9022 26.8204 13.9021 26.7005C13.9021 26.6727 13.9007 26.6714 13.8734 26.6713C13.4052 26.6713 12.937 26.6713 12.4688 26.6713C12.4401 26.6713 12.4388 26.6725 12.4388 26.7015C12.4388 26.8213 12.4388 26.9411 12.4388 27.061C12.4388 27.0944 12.4391 27.0947 12.4719 27.0947Z" fill="white"></path><path d="M13.622 26.051V26.1608H13.4321V26.2455H13.622V26.3554H13.4109V26.4401H13.7114V25.9663H13.4109V26.051L13.622 26.051Z" fill="white"></path><path d="M13.3289 26.4401V25.9663H13.1621C13.1396 25.9663 13.1186 25.97 13.0989 25.9772C13.0793 25.9845 13.0622 25.9947 13.0476 26.008C13.0331 26.0213 13.0216 26.037 13.0132 26.0553C13.0048 26.0736 13.0007 26.0939 13.0007 26.1159C13.0007 26.1384 13.0049 26.1588 13.0132 26.1771C13.0216 26.1954 13.0331 26.2112 13.0476 26.2244C13.0622 26.2377 13.0793 26.2479 13.0989 26.2552C13.1186 26.2625 13.1396 26.2661 13.1621 26.2661H13.2395V26.4402H13.3289V26.4401ZM13.1608 26.1813C13.1375 26.1813 13.1198 26.1747 13.1079 26.1615C13.0959 26.1483 13.09 26.133 13.09 26.1158C13.09 26.1074 13.0914 26.0993 13.0943 26.0913C13.0972 26.0834 13.1016 26.0765 13.1076 26.0705C13.1135 26.0646 13.1209 26.0598 13.1298 26.0563C13.1386 26.0528 13.149 26.051 13.1609 26.051H13.2396V26.1813H13.1608Z" fill="white"></path><path d="M12.7922 26.4507C12.8125 26.4507 12.8319 26.4478 12.8504 26.4421C12.869 26.4364 12.886 26.4278 12.9014 26.4163C12.9168 26.4049 12.9303 26.3908 12.9418 26.3743C12.9532 26.3578 12.9623 26.3385 12.9689 26.3164L12.8848 26.2834C12.8786 26.3072 12.8678 26.3269 12.8524 26.3426C12.8369 26.3582 12.8167 26.3661 12.7915 26.3661C12.7822 26.3661 12.7733 26.3649 12.7646 26.3624C12.7561 26.36 12.7483 26.3565 12.7415 26.3519C12.7346 26.3473 12.7292 26.3414 12.7253 26.3344C12.7213 26.3273 12.7193 26.3191 12.7193 26.3099C12.7193 26.3011 12.7208 26.2931 12.7239 26.2861C12.727 26.279 12.7322 26.2724 12.7394 26.2662C12.7467 26.26 12.7562 26.2541 12.7679 26.2483C12.7796 26.2426 12.794 26.2366 12.8113 26.2304L12.8404 26.2199C12.8531 26.2155 12.866 26.2095 12.8791 26.202C12.8921 26.1945 12.9039 26.1854 12.9145 26.1749C12.925 26.1643 12.9338 26.1518 12.9406 26.1375C12.9475 26.1232 12.9509 26.107 12.9509 26.0889C12.9509 26.0704 12.9472 26.0531 12.94 26.0369C12.9327 26.0209 12.9223 26.0068 12.9089 25.9946C12.8954 25.9825 12.8793 25.973 12.8606 25.9661C12.8419 25.9593 12.821 25.9559 12.7981 25.9559C12.7742 25.9559 12.7536 25.9591 12.7362 25.9655C12.7188 25.9719 12.704 25.9801 12.6919 25.99C12.6797 25.9999 12.67 26.0108 12.6624 26.0227C12.6549 26.0347 12.6494 26.0459 12.6458 26.0565L12.7246 26.0896C12.729 26.0763 12.737 26.0644 12.7487 26.0538C12.7604 26.0432 12.7765 26.0379 12.7967 26.0379C12.8161 26.0379 12.8322 26.0424 12.845 26.0515C12.8578 26.0605 12.8642 26.0723 12.8642 26.0869C12.8642 26.101 12.858 26.113 12.8456 26.1229C12.8333 26.1328 12.8137 26.1424 12.7867 26.1517L12.757 26.1616C12.738 26.1683 12.7207 26.1758 12.705 26.1845C12.6893 26.1931 12.6759 26.2033 12.6646 26.2153C12.6534 26.2272 12.6448 26.2408 12.6388 26.2559C12.6329 26.2712 12.6299 26.2887 12.6299 26.3086C12.6299 26.3333 12.6349 26.3546 12.6448 26.3724C12.6547 26.3903 12.6674 26.4049 12.6828 26.4164C12.6983 26.4279 12.7157 26.4365 12.7351 26.4422C12.7547 26.4478 12.7737 26.4507 12.7922 26.4507Z" fill="white"></path><path d="M10.7164 26.3501L10.4761 26.051H10.7057V25.9662H10.3722V26.0562L10.6098 26.3553H10.3696V26.4401H10.7163L10.7164 26.3501Z" fill="white"></path><path d="M10.2955 25.9662H10.2061V26.4401H10.2955V25.9662Z" fill="white"></path><path d="M10.1108 26.4401V25.9663H9.9441C9.9216 25.9663 9.90054 25.97 9.88092 25.9772C9.8613 25.9845 9.8442 25.9947 9.82962 26.008C9.81504 26.0213 9.80358 26.037 9.79518 26.0553C9.78678 26.0736 9.78264 26.0939 9.78264 26.1159C9.78264 26.1384 9.78684 26.1588 9.79518 26.1771C9.80358 26.1954 9.81504 26.2112 9.82962 26.2244C9.8442 26.2377 9.8613 26.2479 9.88092 26.2552C9.90054 26.2625 9.9216 26.2661 9.9441 26.2661H10.0215V26.4402H10.1108V26.4401ZM9.94272 26.1813C9.91938 26.1813 9.90168 26.1747 9.8898 26.1615C9.87786 26.1483 9.87192 26.133 9.87192 26.1158C9.87192 26.1074 9.87336 26.0993 9.87624 26.0913C9.87912 26.0834 9.8835 26.0765 9.8895 26.0705C9.89544 26.0646 9.90282 26.0598 9.9117 26.0563C9.92052 26.0528 9.9309 26.051 9.94278 26.051H10.0215V26.1813H9.94272Z" fill="white"></path></g><g opacity="0.61"><path d="M11.992 25.9962H11.448V26.1307H11.992V25.9962ZM11.992 26.2281H11.448V26.3627H11.992V26.2281Z" fill="white"></path></g><g opacity="0.61"><path d="M20.5946 28.7327H20.4982C20.4224 28.7327 20.3713 28.7814 20.3713 28.8511C20.3713 28.9208 20.4224 28.9695 20.4982 28.9695H20.5946V28.7327ZM20.4996 28.9478C20.4366 28.9478 20.3961 28.9079 20.3961 28.8511C20.3961 28.7943 20.4367 28.7543 20.4996 28.7543H20.5696V28.9478H20.4996Z" fill="white"></path><path d="M20.0916 28.851C20.0916 28.782 20.0389 28.7306 19.9671 28.7306C19.8961 28.7306 19.843 28.7817 19.843 28.851C19.843 28.9204 19.8961 28.9715 19.9671 28.9715C20.0388 28.9715 20.0916 28.9201 20.0916 28.851ZM19.868 28.851C19.868 28.7945 19.9103 28.7529 19.9671 28.7529C20.0243 28.7529 20.0669 28.7945 20.0669 28.851C20.0669 28.9075 20.0243 28.9491 19.9671 28.9491C19.9102 28.9491 19.868 28.9076 19.868 28.851Z" fill="white"></path><path d="M19.2242 28.7327L19.3041 28.9695H19.3305L19.3998 28.7675L19.4695 28.9695H19.4955L19.5754 28.7327H19.5496L19.4813 28.9363L19.4106 28.7327H19.3873L19.3176 28.9373L19.2483 28.7327H19.2242Z" fill="white"></path><path d="M18.7361 28.7327V28.9695H18.7567L18.9089 28.7774V28.9695H18.934V28.7327H18.9133L18.7607 28.9248V28.7327H18.7361Z" fill="white"></path><path d="M18.4144 28.7327H18.3893V28.9478H18.2567V28.9695H18.4144V28.7327Z" fill="white"></path><path d="M17.9963 28.851C17.9963 28.782 17.9435 28.7306 17.8718 28.7306C17.8007 28.7306 17.7476 28.7817 17.7476 28.851C17.7476 28.9204 17.8007 28.9715 17.8718 28.9715C17.9435 28.9715 17.9963 28.9201 17.9963 28.851ZM17.7727 28.851C17.7727 28.7945 17.815 28.7529 17.8718 28.7529C17.929 28.7529 17.9716 28.7945 17.9716 28.851C17.9716 28.9075 17.929 28.9491 17.8718 28.9491C17.815 28.9491 17.7727 28.9076 17.7727 28.851Z" fill="white"></path><path d="M17.3018 28.9062H17.4337L17.4622 28.9694H17.4882L17.38 28.7326H17.3553L17.247 28.9694H17.2734L17.3018 28.9062ZM17.3109 28.8859L17.3677 28.7587L17.4246 28.8859H17.3109Z" fill="white"></path><path d="M16.9631 28.7327H16.8667C16.7909 28.7327 16.7399 28.7814 16.7399 28.8511C16.7399 28.9208 16.7909 28.9695 16.8667 28.9695H16.9631V28.7327ZM16.8681 28.9478C16.8052 28.9478 16.7646 28.9079 16.7646 28.8511C16.7646 28.7943 16.8052 28.7543 16.8681 28.7543H16.9381V28.9478H16.8681Z" fill="white"></path><path d="M15.9575 28.9062H16.0894L16.1179 28.9694H16.1439L16.0357 28.7326H16.011L15.9027 28.9694H15.9291L15.9575 28.9062ZM15.9666 28.8859L16.0234 28.7587L16.0803 28.8859H15.9666Z" fill="white"></path><path d="M15.6188 28.7327H15.5938V28.9478H15.4612V28.9695H15.6188V28.7327Z" fill="white"></path><path d="M15.175 28.7327H15.15V28.9478H15.0174V28.9695H15.175V28.7327Z" fill="white"></path><path d="M14.3731 28.7543V28.8474H14.2506V28.869H14.3731V28.9695H14.3981V28.7327H14.2357V28.7544L14.3731 28.7543Z" fill="white"></path><path d="M13.9393 28.7327H13.9143V28.9695H13.9393V28.7327Z" fill="white"></path><path d="M13.5926 28.7327H13.5676V28.9478H13.435V28.9695H13.5926V28.7327Z" fill="white"></path><path d="M12.9813 28.9478V28.9695H13.1488V28.7327H12.9864V28.7543H13.1238V28.8386H13.0013V28.8599H13.1238V28.9478H12.9813Z" fill="white"></path><path d="M12.3196 28.7543V28.8474H12.1972V28.869H12.3196V28.9695H12.3447V28.7327H12.1823V28.7544L12.3196 28.7543Z" fill="white"></path><path d="M11.91 28.851C11.91 28.782 11.8572 28.7306 11.7855 28.7306C11.7144 28.7306 11.6613 28.7817 11.6613 28.851C11.6613 28.9204 11.7144 28.9715 11.7855 28.9715C11.8572 28.9715 11.91 28.9201 11.91 28.851ZM11.6864 28.851C11.6864 28.7945 11.7287 28.7529 11.7855 28.7529C11.8427 28.7529 11.8853 28.7945 11.8853 28.851C11.8853 28.9075 11.8427 28.9491 11.7855 28.9491C11.7287 28.9491 11.6864 28.9076 11.6864 28.851Z" fill="white"></path><path d="M11.1989 28.9695L11.253 28.8933C11.2591 28.894 11.2652 28.8944 11.272 28.8944H11.3356V28.9695H11.3606V28.7327H11.272C11.2117 28.7327 11.1752 28.7631 11.1752 28.8138C11.1752 28.851 11.1948 28.8771 11.2293 28.8882L11.1715 28.9694H11.1989V28.9695ZM11.2003 28.8138C11.2003 28.7759 11.2253 28.7543 11.2727 28.7543H11.3356V28.8731H11.2727C11.2253 28.8731 11.2003 28.851 11.2003 28.8138Z" fill="white"></path><path d="M10.6255 28.7327V28.9695H10.6495V28.78L10.7426 28.9394H10.7544L10.8475 28.781V28.9694H10.8715V28.7326H10.8508L10.748 28.9082L10.6462 28.7326L10.6255 28.7327Z" fill="white"></path><path d="M10.1553 28.9062H10.2873L10.3156 28.9694H10.3417L10.2334 28.7326H10.2088L10.1005 28.9694H10.1269L10.1553 28.9062ZM10.1644 28.8859L10.2213 28.7587L10.2781 28.8859H10.1644Z" fill="white"></path><path d="M9.78256 28.7543H9.86578V28.7327H9.67426V28.7543H9.75748V28.9695H9.7825V28.7543H9.78256Z" fill="white"></path><path d="M9.4162 28.9407L9.40636 28.9215C9.38944 28.938 9.35932 28.9502 9.32824 28.9502C9.2839 28.9502 9.26464 28.9316 9.26464 28.9083C9.26464 28.8433 9.41044 28.8833 9.41044 28.7957C9.41044 28.7608 9.38338 28.7307 9.32314 28.7307C9.29638 28.7307 9.26866 28.7385 9.2497 28.7517L9.25816 28.7717C9.27844 28.7585 9.30214 28.752 9.32314 28.752C9.36646 28.752 9.38572 28.7713 9.38572 28.795C9.38572 28.86 9.23992 28.8207 9.23992 28.907C9.23992 28.9418 9.26764 28.9716 9.32824 28.9716C9.36376 28.9715 9.39862 28.959 9.4162 28.9407Z" fill="white"></path></g><path fill-rule="evenodd" clip-rule="evenodd" d="M4.83887 4.57696C4.56133 2.96824 4.15407 1.95658 3.70293 1.95465H3.70193C2.86066 1.95758 2.17873 5.46589 2.17873 9.79745C2.17873 14.1289 2.86167 17.6402 3.70387 17.6402C4.04913 17.6402 4.36767 17.044 4.62427 16.0449C5.02967 19.702 5.87086 22.2161 6.84473 22.2161C7.59826 22.2161 8.27447 20.706 8.72847 18.3242C9.03847 22.8539 9.81867 26.0674 10.7305 26.0674C11.3028 26.0674 11.8245 24.794 12.2108 22.7205C12.6753 27.0008 13.7483 29.9999 14.9997 29.9999C16.2511 29.9999 17.326 27.0018 17.7886 22.7205C18.1721 24.7941 18.6937 26.0674 19.2689 26.0674C20.1807 26.0674 20.9591 22.8538 21.2709 18.3242C21.7249 20.706 22.3993 22.2161 23.1547 22.2161C24.1275 22.2161 24.9697 19.703 25.3751 16.0449C25.6297 17.0469 25.9502 17.6402 26.2955 17.6402C27.1377 17.6402 27.8206 14.1289 27.8206 9.79745C27.8206 5.46589 27.1377 1.95465 26.2955 1.95465C25.8433 1.95465 25.4389 2.96917 25.1585 4.57696C24.7093 1.80298 23.9796 0 23.1546 0C22.175 0 21.3261 2.54984 20.9246 6.25234C20.5317 3.55757 19.9355 1.83965 19.2679 1.83965C18.3323 1.83965 17.5367 5.21849 17.242 9.93171C16.6879 7.51513 15.8857 5.99921 14.9977 5.99921C14.1097 5.99921 13.3076 7.5162 12.7544 9.93171C12.4587 5.21849 11.6642 1.83965 10.7285 1.83965C10.0619 1.83965 9.46667 3.55757 9.0718 6.25234C8.67126 2.54984 7.82233 0 6.8428 0C6.0206 6.66661e-05 5.28806 1.80398 4.83887 4.57696ZM30 9.02605C30 7.08974 29.6127 5.51962 29.1349 5.51962C28.6571 5.51962 28.2699 7.08974 28.2699 9.02605C28.2699 10.9623 28.6571 12.5324 29.1349 12.5324C29.6127 12.5324 30 10.9623 30 9.02605ZM1.7302 9.02605C1.7302 7.08974 1.343 5.51962 0.865131 5.51962C0.387264 5.51962 -1.90735e-06 7.0898 -1.90735e-06 9.02605C-1.90735e-06 10.9623 0.387264 12.5324 0.865131 12.5324C1.343 12.5324 1.7302 10.9623 1.7302 9.02605Z" fill="#A238FF"></path></g><defs><clipPath id="clip0_3660_969"><rect width="30" height="30" fill="white" transform="matrix(-1 0 0 1 30 0)"></rect></clipPath></defs></svg>