<svg xmlns="http://www.w3.org/2000/svg" viewBox="0 0 50 50" fill="white" class="sc-brqgnP eqsQos" style="height: inherit; width: inherit;"><path d="M37.36 5.578a.993.993 0 0 0-.643.29c-.355.354-.391.92-.084 1.318A20.8 20.8 0 0 1 41 20c0 11.579-9.421 21-21 21-4.68 0-9.11-1.51-12.813-4.367a1 1 0 0 0-1.404 1.4C10.18 43.731 16.82 47 24 47c12.683 0 23-10.317 23-23 0-7.18-3.268-13.82-8.965-18.217a1 1 0 0 0-.676-.205zM10.21 9a.996.996 0 0 0-.698.285A14.886 14.886 0 0 0 5 20c0 5.288 2.846 10.243 7.426 12.932a1 1 0 0 0 1.367-1.37A12.97 12.97 0 0 1 12 25a12.92 12.92 0 0 1 3.715-9.09.998.998 0 0 0 .285-.7V10a1 1 0 0 0-1-1h-4.79zM26 9a1 1 0 0 0-1 1v6.5c0 1.93-1.57 3.5-3.5 3.5-.059 0-.115-.012-.172-.02l-.18-.021a1 1 0 0 0-1.098 1.096A5.473 5.473 0 0 0 25.5 26c3.032 0 5.5-2.467 5.5-5.5V16h1a1.002 1.002 0 0 0 .93-1.371l-2-5A1.002 1.002 0 0 0 30 9h-4z"></path></svg>