<?xml version="1.0" encoding="UTF-8"?>
<svg width="16px" height="16px" viewBox="0 0 16 16" version="1.1" xmlns="http://www.w3.org/2000/svg" xmlns:xlink="http://www.w3.org/1999/xlink">
    <title>instagram_white_fill</title>
    <defs>
        <linearGradient x1="50%" y1="99.7089109%" x2="50%" y2="0.776721582%" id="linearGradient-1">
            <stop stop-color="#E09B3D" offset="0%"></stop>
            <stop stop-color="#C74C4D" offset="30%"></stop>
            <stop stop-color="#C21975" offset="60%"></stop>
            <stop stop-color="#7024C4" offset="100%"></stop>
        </linearGradient>
    </defs>
    <g id="instagram_white_fill" stroke="none" stroke-width="1" fill="none" fill-rule="evenodd">
        <g id="icon/link/spotify/color-copy">
            <polygon id="Bounds" points="0 0 16 0 16 16 0 16"></polygon>
            <path d="M10.586811,0 L5.41318902,0 C2.42693213,0 0,2.42693213 0,5.41318902 L0,10.586811 C0,13.5730678 2.42693213,16 5.41318902,16 L10.586811,16 C13.5730678,16 16,13.5730678 16,10.586811 L16,5.41318902 C16,2.42693864 13.5730511,0 10.586811,0 Z" id="Path" fill="url(#linearGradient-1)" fill-rule="nonzero"></path>
            <g id="logo/instagram" transform="translate(1.600000, 1.600000)" fill="#FFFFFF" fill-rule="nonzero">
                <path d="M8.98681096,0 L3.81318902,0 C1.71058773,0 0,1.71058773 0,3.81318902 L0,8.98681096 C0,11.0894122 1.71058773,12.8 3.81318902,12.8 L8.98681096,12.8 C11.0894122,12.8 12.8,11.0894122 12.8,8.98681096 L12.8,3.81318902 C12.8,1.71058773 11.089389,0 8.98681096,0 Z M11.5123205,8.98681096 C11.5123205,10.3815997 10.3815997,11.5123205 8.98681096,11.5123205 L3.81318902,11.5123205 C2.41840032,11.5123205 1.28767953,10.3815997 1.28767953,8.98681096 L1.28767953,3.81318902 C1.28767953,2.41837709 2.41840032,1.28767953 3.81318902,1.28767953 L8.98681096,1.28767953 C10.3815997,1.28767953 11.5123205,2.41837709 11.5123205,3.81318902 L11.5123205,8.98681096 L11.5123205,8.98681096 Z" id="Shape"></path>
                <path d="M6.4,3.2 C4.63551717,3.2 3.2,4.6355222 3.2,6.39998878 C3.2,8.16445536 4.63551717,9.6 6.4,9.6 C8.1644828,9.6 9.6,8.16447776 9.6,6.39998878 C9.6,4.63549975 8.1644828,3.2 6.4,3.2 Z M6.4,8.35533288 C5.32010076,8.35533288 4.44468519,7.47991426 4.44468519,6.40001122 C4.44468519,5.3201082 5.32012322,4.44468956 6.4,4.44468956 C7.47989924,4.44468956 8.3553148,5.3201082 8.3553148,6.40001122 C8.3553148,7.4798918 7.47987678,8.35533288 6.4,8.35533288 Z" id="Shape"></path>
                <circle id="Oval" cx="9.6" cy="3.2" r="1"></circle>
            </g>
        </g>
    </g>
</svg>