<?xml version="1.0" encoding="UTF-8"?>
<svg width="16px" height="16px" viewBox="0 0 16 16" version="1.1" xmlns="http://www.w3.org/2000/svg" xmlns:xlink="http://www.w3.org/1999/xlink">
    <title>youtube_white_fill</title>
    <g id="youtube_white_fill" stroke="none" stroke-width="1" fill="none" fill-rule="evenodd">
        <g id="color">
            <polygon id="Bounds" points="0.00545640559 0 16.0054564 0 16.0054564 16 0.00545640559 16"></polygon>
            <path d="M15.6709787,3.71469022 C15.486916,3.03832688 14.9445493,2.50571959 14.2559509,2.32495966 C13.0077981,1.99645047 8.00272821,1.99645047 8.00272821,1.99645047 C8.00272821,1.99645047 2.9976583,1.99645047 1.74950552,2.32495966 C1.06090713,2.50571959 0.518540412,3.03832688 0.334477663,3.71469022 C0,4.94052114 0,7.49822523 0,7.49822523 C0,7.49822523 0,10.0558406 0.334477663,11.2817602 C0.518540412,11.9581236 1.06090713,12.4907309 1.74950552,12.6715795 C2.9976583,13 8.00272821,13 8.00272821,13 C8.00272821,13 13.0077981,13 14.2559509,12.6715795 C14.9445493,12.4907309 15.486916,11.9581236 15.6709787,11.2817602 C16.0054564,10.0558406 16.0054564,7.49822523 16.0054564,7.49822523 C16.0054564,7.49822523 16.0054564,4.94052114 15.6709787,3.71469022 L15.6709787,3.71469022 Z" id="Combined-Shape" fill="#FF0000" fill-rule="nonzero"></path>
            <polygon id="Path" fill="#FFFFFF" fill-rule="nonzero" points="6.36580653 9.82041788 6.36580653 5.17603259 10.5490508 7.49831397"></polygon>
        </g>
    </g>
</svg>